HIERARCHY
ROOT Hips
{
  OFFSET 3.13124 94.3669 -3.18751
  CHANNELS  6 Xposition Yposition Zposition Zrotation Xrotation Yrotation
  JOINT LeftUpLeg
  {
    OFFSET 8.64259 1.95398 -2.38835
    CHANNELS 3 Zrotation Xrotation Yrotation
    JOINT LeftLeg
    {
      OFFSET 43.7702 0 0
      CHANNELS 3 Zrotation Xrotation Yrotation
      JOINT LeftFoot
      {
        OFFSET 40.6238 0 0
        CHANNELS 3 Zrotation Xrotation Yrotation
        JOINT LeftToeBase
        {
          OFFSET 12.7242 0 0
          CHANNELS 3 Zrotation Xrotation Yrotation
          End Site
          {
            OFFSET 0 0 0
          }
        }
      }
    }
  }
  JOINT RightUpLeg
  {
    OFFSET -8.2249 1.95398 -2.59336
    CHANNELS 3 Zrotation Xrotation Yrotation
    JOINT RightLeg
    {
      OFFSET 43.5653 0 0
      CHANNELS 3 Zrotation Xrotation Yrotation
      JOINT RightFoot
      {
        OFFSET 40.6238 0 0
        CHANNELS 3 Zrotation Xrotation Yrotation
        JOINT RightToeBase
        {
          OFFSET 12.7242 0 0
          CHANNELS 3 Zrotation Xrotation Yrotation
          End Site
          {
            OFFSET 0 0 0
          }
        }
      }
    }
  }
  JOINT Spine
  {
    OFFSET 0.165834 0.87714 6.61349
    CHANNELS 3 Zrotation Xrotation Yrotation
    JOINT Spine1
    {
      OFFSET 7.38962 1.71661e-005 0
      CHANNELS 3 Zrotation Xrotation Yrotation
      JOINT Spine2
      {
        OFFSET 11.9445 1.14441e-005 0
        CHANNELS 3 Zrotation Xrotation Yrotation
        JOINT Spine3
        {
          OFFSET 14.7254 4.19617e-005 0
          CHANNELS 3 Zrotation Xrotation Yrotation
          JOINT Spine4
          {
            OFFSET 10.9679 0 0
            CHANNELS 3 Zrotation Xrotation Yrotation
            JOINT RightShoulder
            {
              OFFSET 2.46616 -1.6653 3.69651
              CHANNELS 3 Zrotation Xrotation Yrotation
              JOINT RightArm
              {
                OFFSET 13.0012 0 0
                CHANNELS 3 Zrotation Xrotation Yrotation
                JOINT RightForeArm
                {
                  OFFSET 28.7848 1.52588e-005 0
                  CHANNELS 3 Zrotation Xrotation Yrotation
                  JOINT RightHand
                  {
                    OFFSET 26.5688 1.52588e-005 0
                    CHANNELS 3 Zrotation Xrotation Yrotation
                    End Site
                    {
                      OFFSET 0 0 0
                    }
                  }
                }
              }
            }
            JOINT LeftShoulder
            {
              OFFSET 2.38034 -1.29275 -3.75231
              CHANNELS 3 Zrotation Xrotation Yrotation
              JOINT LeftArm
              {
                OFFSET 16.3182 6.10352e-005 0
                CHANNELS 3 Zrotation Xrotation Yrotation
                JOINT LeftForeArm
                {
                  OFFSET 27.0901 0 0
                  CHANNELS 3 Zrotation Xrotation Yrotation
                  JOINT LeftHand
                  {
                    OFFSET 24.5451 1.52588e-005 0
                    CHANNELS 3 Zrotation Xrotation Yrotation
                    End Site
                    {
                      OFFSET 0 0 0
                    }
                  }
                }
              }
            }
            JOINT Neck
            {
              OFFSET 5.0226 -0.0266342 0
              CHANNELS 3 Zrotation Xrotation Yrotation
              JOINT Head
              {
                OFFSET 6.69363 2.86102e-005 0
                CHANNELS 3 Zrotation Xrotation Yrotation
                End Site
                {
                  OFFSET 0 0 0
                }
              }
            }
          }
        }
      }
    }
  }
}
MOTION
Frames:	12
Frame Time:	0.0333333
-2.00296 97.3141 -10.847 110.722 -89.9987 110.714 -171.102 3.22121 91.5476 -9.90808 8.611 2.68331 63.8804 0.837455 0.408899 28.7808 5.58174e-006 2.58452e-007 169.465 2.43709 93.5037 -10.1191 -10.0871 -1.93562 63.9493 -1.08151 -0.557246 28.7808 1.48996e-005 2.93456e-005 -0.000565193 6.34022 -89.9931 14.1935 9.51699e-008 -7.76754e-007 2.52251 8.33364e-006 -1.82744e-006 -20.0126 -6.36294e-006 0.00526009 4.98789e-022 -5.43552e-018 0.00525773 100.864 -18.8196 -85.3829 0.0317114 39.454 -24.7815 2.9691 0.281038 -7.94084 -5.37983 -0.32001 -0.0162448 -79.0301 -21.9533 94.2345 9.45274 -41.1944 -19.5236 2.7627 42.486 -5.25837 -0.972207 -0.0466375 -0.202257 1.74598 0.00304676 0.00818157 -7.40576 0.00108415 -0.00553122 
-2.00584 97.3196 -10.847 90.2676 -89.9765 90.2599 -171.11 3.2175 91.5552 -9.87762 8.60952 2.68997 63.8602 0.774899 0.373643 28.7808 5.58174e-006 2.58452e-007 169.453 2.45831 93.5097 -10.1603 -10.106 -1.92361 63.8734 -1.20144 -0.623539 28.7808 1.48996e-005 2.93456e-005 0.000250178 6.34022 -90.0036 14.1935 9.51699e-008 -7.76754e-007 2.52251 8.33364e-006 -1.82744e-006 -20.0126 -6.36294e-006 0.00526009 -1.59028e-015 -9.31803e-018 0.00525773 100.901 -18.761 -85.3653 0.0599353 39.3933 -24.7362 2.99519 0.281041 -7.93595 -5.37983 -0.32001 -0.0162448 -79.0234 -22.0315 94.202 9.44211 -41.186 -19.5348 2.75744 42.438 -5.25432 -0.988581 -0.0466372 -0.276468 1.62904 0.0495843 0.128576 -7.33272 0.0014648 -0.0806938 
-2.009 97.3146 -10.8505 82.1835 -89.9604 82.1756 -171.124 3.22075 91.5451 -9.8643 8.59955 2.69657 63.854 0.756127 0.363199 28.7808 5.58174e-006 2.58452e-007 169.446 2.47652 93.5058 -10.1778 -10.097 -1.91901 63.8921 -1.19912 -0.622185 28.7808 1.48996e-005 2.93456e-005 0.000583739 6.34022 -90.0075 14.1935 9.51699e-008 -7.76754e-007 2.52251 8.33364e-006 -1.82744e-006 -20.0126 -6.36294e-006 0.00526009 5.70044e-022 -6.21202e-018 0.00525773 100.919 -18.7769 -85.3656 0.0300932 39.3721 -24.6482 3.01036 0.280991 -8.00896 -5.37983 -0.32001 -0.0162448 -79.0013 -22.0668 94.2151 9.3571 -41.1576 -19.5882 2.7956 42.4871 -5.25719 -1.20151 -0.046637 -0.328583 1.60739 0.067032 0.101435 -7.38608 0.00865877 0.0281747 
-2.01804 97.3162 -10.8535 123.815 -89.9384 123.808 -171.112 3.19631 91.5536 -9.89214 8.5987 2.70005 63.871 0.736198 0.35186 28.7808 5.58174e-006 2.58452e-007 169.411 2.41691 93.4826 -10.1419 -10.094 -1.87741 63.9244 -1.16448 -0.603223 28.7808 1.48996e-005 2.93456e-005 0.000194893 6.34022 -90.0027 14.1935 9.51699e-008 -7.76754e-007 2.52251 8.33364e-006 -1.82744e-006 -20.0126 -6.36294e-006 0.00526009 -1.59028e-015 0 0.00525773 100.885 -18.8035 -85.403 -0.0347778 39.3536 -24.5965 3.04738 0.281053 -7.91882 -5.37983 -0.32001 -0.0162448 -79.0408 -22.1449 94.1745 9.37583 -41.1633 -19.5536 2.77255 42.4257 -5.23276 -1.16285 -0.0466368 -0.3649 1.43916 0.111337 0.218616 -7.25866 0.0310531 -0.0886122 
-2.03176 97.3274 -10.8626 153.512 -89.9033 153.536 -171.083 3.15371 91.596 -9.89471 8.62023 2.69882 63.8692 0.817027 0.398249 28.7808 5.58174e-006 2.58452e-007 169.439 2.38491 93.5267 -10.182 -10.1484 -1.90639 63.8148 -1.27807 -0.665711 28.7808 1.48996e-005 2.93456e-005 0.000844851 6.34019 -90.0113 14.1935 -2.41202e-005 -2.55099e-005 2.52256 -1.71696e-005 -2.55391e-005 -20.0126 -6.36294e-006 0.00526009 5.18083e-005 -1.2424e-017 0.00525773 100.793 -18.8865 -85.4467 -0.0370108 39.3858 -24.5907 3.02604 0.281072 -7.89106 -5.37983 -0.32001 -0.0162448 -79.1051 -22.157 94.1962 9.36855 -41.1276 -19.5153 2.73671 42.3592 -5.2233 -1.05586 -0.0466364 -0.444936 1.36488 0.114808 0.160273 -7.22618 0.0334325 -0.00201704 
-2.03862 97.3212 -10.8786 164.419 -89.8822 164.421 -171.087 3.17409 91.5774 -9.98064 8.59438 2.71326 63.8886 0.711687 0.337017 28.7808 5.58174e-006 2.58452e-007 169.444 2.33021 93.5008 -10.1123 -10.0994 -1.90895 63.9226 -1.13353 -0.586334 28.7808 1.48996e-005 2.93456e-005 -0.000601505 6.34072 -89.9901 14.1924 0.000474674 0.000507546 2.52148 0.000500788 0.000483631 -20.0137 0.000528744 0.00526009 -0.00103147 0.000535129 0.00525773 100.739 -18.919 -85.5256 -0.025156 39.3921 -24.5298 3.0067 0.281061 -7.90755 -5.37983 -0.32001 -0.0162448 -79.1579 -22.2097 94.1293 9.44984 -41.1377 -19.3751 2.74775 42.2974 -5.25749 -1.15755 -0.0466373 -0.260068 1.21809 0.134477 0.260543 -7.06664 0.0393053 -0.104192 
-2.0348 97.3187 -10.9017 168.777 -89.8656 168.777 -171.116 3.12607 91.5642 -9.898 8.52202 2.70289 63.874 0.766334 0.369902 28.7808 5.58174e-006 2.58452e-007 169.422 2.36975 93.4942 -10.1981 -10.1651 -1.91495 63.9105 -1.17389 -0.607554 28.7808 1.48996e-005 2.93456e-005 0.00609993 6.35486 -90.0047 14.1642 0.0140067 0.013654 2.49323 0.0145918 0.013016 -20.0419 0.0092538 0.00526009 -0.0292748 0.00926043 0.00525773 100.808 -19.0227 -85.4907 -0.00301702 39.395 -24.5436 2.99352 0.28107 -7.89432 -5.37983 -0.32001 -0.0162448 -79.1094 -22.2053 94.0862 9.50103 -41.1146 -19.2946 2.77144 42.413 -5.31316 -1.18674 -0.046642 -0.129916 1.31024 0.0713036 0.261596 -7.02548 0.0357149 -0.104134 
-2.04837 97.3258 -10.9267 -177.693 -89.8609 -177.687 -171.092 3.18952 91.5819 -10.0111 8.53465 2.714 63.871 0.699485 0.329586 28.7808 5.58174e-006 2.58452e-007 169.434 2.34045 93.5016 -10.1248 -10.1279 -1.89593 63.9088 -1.08605 -0.558886 28.7808 1.48996e-005 2.93456e-005 0.00959601 6.35794 -89.9858 14.158 0.0230473 0.00746147 2.48704 0.0233589 0.00643332 -20.0481 0.0197386 0.00526009 -0.0354623 0.0197438 0.00525773 100.792 -19.0868 -85.5317 -0.00590461 39.418 -24.5041 2.97328 0.281073 -7.8898 -5.37983 -0.32001 -0.0162448 -79.1496 -22.2032 93.9929 9.5801 -41.1157 -19.1238 2.77095 42.3875 -5.31639 -1.20207 -0.0465423 -0.0652178 1.22773 0.0678849 0.318469 -6.86802 0.023014 -0.123239 
-2.04883 97.3131 -10.9528 -170.102 -89.8433 -170.085 -171.112 3.14689 91.58 -9.92763 8.49544 2.71814 63.8835 0.776666 0.375654 28.7808 5.58174e-006 2.58452e-007 169.43 2.36303 93.5113 -10.1697 -10.1964 -1.90912 63.9201 -1.08014 -0.554823 28.7808 1.48996e-005 2.93456e-005 0.0113453 6.36663 -90.0021 14.1406 0.0239597 0.0071869 2.4697 0.0242479 0.00612502 -20.0655 0.0206818 0.00526009 -0.0528092 0.0206853 0.00525773 100.773 -19.1504 -85.5653 -0.0522063 39.4038 -24.4699 2.99707 0.281088 -7.86783 -5.37983 -0.32001 -0.0162448 -79.1243 -22.1799 94.0548 9.55875 -41.086 -19.0836 2.76887 42.4461 -5.32009 -1.14517 -0.0444722 -0.0353746 1.34393 0.0706991 0.3995 -6.92132 0.0134909 -0.142846 
-2.06478 97.3325 -10.9774 -168.437 -89.7924 -168.412 -171.062 3.18136 91.6114 -10.069 8.50744 2.70631 63.8801 0.72761 0.34474 28.7808 5.58174e-006 2.58452e-007 169.443 2.2678 93.512 -10.06 -10.1592 -1.89733 63.8992 -1.0127 -0.517823 28.7808 1.48996e-005 2.93456e-005 0.0154137 6.36985 -89.9792 14.1341 0.0342259 -0.00215493 2.46314 0.0341048 -0.00366775 -20.072 0.033292 0.00526009 -0.0593756 0.0332909 0.00525773 100.739 -19.2264 -85.6527 -0.173481 39.4283 -24.2822 3.00845 0.281078 -7.88208 -5.37983 -0.32001 -0.0162448 -79.2058 -22.179 93.8667 9.70873 -41.0832 -18.8184 2.76862 42.4541 -5.33868 -1.13619 -0.0415616 0.0367276 1.09819 0.0782011 0.452478 -6.61416 0.0150179 -0.168497 
-2.06572 97.3338 -11.0058 -171.074 -89.791 -171.033 -171.063 3.17084 91.6181 -10.0156 8.53927 2.70778 63.8557 0.841617 0.410117 28.7808 5.58174e-006 2.58452e-007 169.435 2.29819 93.5252 -10.0913 -10.1938 -1.88265 63.8436 -1.10512 -0.568982 28.7808 1.48996e-005 2.93456e-005 0.0183266 6.37106 -89.991 14.1314 0.0375702 -0.00619249 2.46046 0.0372603 -0.00784702 -20.0747 0.0376894 0.0056016 -0.0620525 0.0376983 0.00559982 100.699 -19.2083 -85.7551 -0.232237 39.4056 -24.0901 3.01797 0.281099 -7.85185 -5.37983 -0.32001 -0.0162448 -79.2493 -22.1697 93.7674 9.7914 -41.0653 -18.6425 2.73866 42.3601 -5.35538 -1.01192 -0.0384527 0.0910175 0.933235 0.101478 0.550826 -6.4161 0.0283846 -0.273914 
-2.06828 97.3113 -11.0351 -169.381 -89.7891 -169.367 -171.06 3.26909 91.596 -10.188 8.46136 2.69269 63.9359 0.702412 0.328968 28.7808 5.58174e-006 2.58452e-007 169.474 2.22127 93.5069 -9.93235 -10.2887 -1.94671 64.037 -0.948788 -0.485605 28.7808 1.48996e-005 2.93456e-005 0.0204661 6.37109 -89.9566 14.1315 0.0474794 -0.00541302 2.46059 0.0473221 -0.00751038 -20.0746 0.0469004 0.00910126 -0.061929 0.046915 0.00910727 100.68 -19.287 -85.7997 -0.194962 39.4919 -24.0639 2.93104 0.280955 -7.81028 -5.37983 -0.32001 -0.0162448 -79.2755 -22.0998 93.7017 9.78023 -41.0424 -18.5612 2.74957 42.2874 -5.41034 -1.03604 -0.0357818 0.335923 0.78029 0.0962476 0.498748 -6.29151 0.0296224 -0.214935 
